<?xml version="1.0" encoding="UTF-8"?>
<svg id="Layer_1" xmlns="http://www.w3.org/2000/svg" version="1.1" viewBox="0 0 1422.91 560.48">
  <!-- Generator: Adobe Illustrator 30.2.1, SVG Export Plug-In . SVG Version: 2.1.1 Build 1)  -->
  <defs>
    <style>
      .st0 {
        fill: #3781c4;
        stroke: #3b53a4;
        stroke-miterlimit: 10;
        stroke-width: .5px;
      }
    </style>
  </defs>
  <path class="st0" d="M177.92,194.28v-.14s-77.5,77.49-77.5,77.49v16.52l114.97-114.97c-15.14,5.57-27.44,13.12-37.48,21.1ZM231.58,168.3l-131.16,131.16v16.52l151.07-151.07c-7.06.75-13.68,1.91-19.91,3.4ZM336.38,274.85l60.72-60.72c-2.61-2.89-5.34-5.67-8.18-8.34l-59.56,59.56c2.57,2.95,4.92,6.11,7.02,9.49ZM270.67,163.91c-2.38,0-4.71.05-7,.14l-163.21,163.21c.07,5.33.34,10.57.82,15.7l178.86-178.86c-3.12-.13-6.27-.19-9.46-.19ZM222.01,250.06l83.42-83.42c-4.79-.78-9.69-1.39-14.68-1.83l-188.26,188.26c.7,4.73,1.57,9.37,2.61,13.91l83.98-83.98c7.29-13.7,18.86-25.14,32.93-32.93ZM345.03,294.03l64.26-64.26c-2.2-3.29-4.54-6.46-6.99-9.53l-61.91,61.91c1.81,3.75,3.36,7.72,4.64,11.88ZM349.15,317.74l70.27-70.27c-1.78-3.7-3.7-7.28-5.76-10.76l-66.37,66.37c.94,4.68,1.56,9.58,1.85,14.67ZM346.9,347.83l80.43-80.43c-1.33-4.14-2.8-8.17-4.42-12.1l-73.64,73.64c-.25,6.63-1.05,12.94-2.37,18.89ZM177.53,138.86l-77.11,77.11v16.52l77.22-77.22-.12-16.4ZM157.69,75.21l-57.26,57.26v16.52l73.78-73.78h-16.52ZM193.17,373.71l-57.06,57.06c2.49,3,5.1,5.9,7.83,8.69l56.18-56.18c-2.52-2.92-4.85-6.1-6.95-9.57ZM129.86,75.21l-29.43,29.43v16.52l45.95-45.95h-16.52ZM177.14,83.59l-76.72,76.72v16.52l76.83-76.83-.12-16.4ZM177.73,166.5l-77.3,77.3v16.52l77.42-77.42-.12-16.4ZM323.77,259.63l59.14-59.14c-3.01-2.5-6.13-4.89-9.36-7.16l-59.08,59.08c3.31,2.17,6.42,4.58,9.3,7.22ZM177.34,111.22l-76.91,76.91v16.52l77.03-77.03-.12-16.4ZM274.85,486.85c6.05-.18,11.98-.6,17.78-1.26l142.28-142.28c.54-5.67.83-11.47.87-17.38l-160.92,160.92ZM307.3,248.26l59.43-59.43c-3.41-2.11-6.94-4.09-10.57-5.95l-60.58,60.58c4.11,1.33,8.02,2.93,11.71,4.8ZM268.26,409.94l-66.19,66.19c4.09,1.46,8.28,2.78,12.57,3.95l72.31-72.31c-5.9,1.27-12.14,2-18.7,2.18ZM434.3,299.57l-186.46,186.46c5.11.47,10.32.78,15.63.89l172.1-172.1c-.23-5.19-.66-10.27-1.27-15.25ZM421.65,395.71l-75.69,75.69c34.53-15.39,60.74-41.57,75.69-75.69ZM242.75,407.62l-60.13,60.13c3.66,1.87,7.43,3.61,11.29,5.22l63.26-63.26c-4.84-.36-9.67-1.04-14.42-2.09ZM327.79,478.26l100.44-100.44c2.09-6.91,3.76-14.09,4.99-21.51l-127.32,127.32c7.56-1.38,14.87-3.18,21.9-5.38ZM100.43,75.21v18.12l18.12-18.12h-18.12ZM429.87,276.16l-88.52,88.52c-7.69,17.16-20.64,30.14-37.72,37.72l-79.92,79.92c4.57,1,9.24,1.84,14,2.52l195.12-195.12c-.82-4.63-1.81-9.14-2.96-13.56ZM222.17,400.37l-56.98,56.98c3.26,2.26,6.63,4.4,10.11,6.41l58.57-58.57c-4.01-1.32-7.93-2.92-11.69-4.83ZM181.81,303.68c.17-.9.36-1.79.56-2.67l-74.95,74.95c1.22,4.23,2.6,8.36,4.13,12.39l69.51-69.51c.12-5.45.36-13.08.75-15.15ZM286.64,241.1l61.86-61.86c-3.83-1.7-7.77-3.27-11.82-4.7l-64.61,64.61c5.06.31,9.92.96,14.57,1.94ZM260.87,239.03l67.26-67.26c-4.28-1.26-8.67-2.39-13.17-3.35l-73.81,73.81c6.33-1.77,12.94-2.87,19.71-3.2ZM181.09,330.12l-66.24,66.24c1.68,3.79,3.5,7.48,5.46,11.06l62.4-62.4c-.83-4.68-1.38-9.64-1.61-14.91ZM205.69,389.02l-56,56c2.88,2.63,5.87,5.15,8.96,7.55l56.34-56.34c-3.27-2.13-6.38-4.53-9.31-7.21ZM184.81,354.23l-60.34,60.34c2.1,3.38,4.32,6.67,6.67,9.84l58.1-58.1c-1.73-3.75-3.21-7.78-4.43-12.08Z"/>
  <g>
    <path class="st0" d="M1134.2,248.77c.54,0,1.07-.02,1.62-.02,4.49,0,9.12.37,13.71,1.21l64.2-64.2c-3.83-1.74-7.8-3.29-11.88-4.64l-67.65,67.65Z"/>
    <path class="st0" d="M1099.26,255.89c6.54-3.17,14.19-5.29,22.86-6.34l70.98-70.98c-4.46-1.14-9.04-2.07-13.72-2.79l-80.11,80.11Z"/>
    <path class="st0" d="M1186.78,279.69c1.44,4,2.47,8.49,3.03,13.48l68.34-68.34c-2.1-3.44-4.35-6.7-6.75-9.77l-64.62,64.62Z"/>
    <path class="st0" d="M985.73,341.58v16.52l183.57-183.57c-5.15-.48-10.41-.73-15.75-.77l-167.82,167.82Z"/>
    <path class="st0" d="M1273.36,265.29c-.92-4.61-2.01-9.02-3.27-13.25l-79.77,79.77v16.52l83.04-83.04Z"/>
    <path class="st0" d="M1158.51,252.3c3.9,1.34,7.65,3.11,11.14,5.38l61.76-61.76c-3.24-2.32-6.63-4.44-10.14-6.38l-62.75,62.75Z"/>
    <path class="st0" d="M909.39,250.93c5.69-1.25,11.91-1.96,18.65-2.13l68.05-68.05c-4.23-1.36-8.59-2.51-13.06-3.46l-73.64,73.64Z"/>
    <path class="st0" d="M985.73,313.75v16.52l156.21-156.21c-6.38.39-12.69,1.16-18.87,2.35l-137.34,137.34Z"/>
    <path class="st0" d="M939.02,249.14c4.61.45,9.26,1.33,13.75,2.77l62.9-62.9c-3.62-1.95-7.38-3.71-11.25-5.26l-65.39,65.39Z"/>
    <path class="st0" d="M1052.74,218.9c-.54.7-1.08,1.4-1.61,2.12-.07-.1-.14-.2-.21-.3l-66.61,66.61c.91,4.45,1.41,9.37,1.41,14.8v.31l122.16-122.16c-12.23,3.92-23.77,9.73-34.24,17.72l-20.9,20.9Z"/>
    <path class="st0" d="M960.78,255.2c3.5,1.79,6.8,4.02,9.78,6.74l61.76-61.76c-3.04-2.52-6.22-4.85-9.53-6.98l-62.01,62.01Z"/>
    <path class="st0" d="M981.78,278.55l64.34-64.34c-2.47-3.08-5.09-5.97-7.85-8.67l-62.34,62.34c2.3,3.09,4.29,6.63,5.85,10.67Z"/>
    <polygon class="st0" points="783.37 209.96 783.37 226.48 827.56 182.29 811.04 182.29 783.37 209.96"/>
    <polygon class="st0" points="860.47 205.04 859.92 189.07 783.37 265.62 783.37 282.14 860.47 205.04"/>
    <path class="st0" d="M947.43,173.75c-5.87,0-11.7.31-17.45.93l-146.6,146.6v16.52l164.05-164.05Z"/>
    <path class="st0" d="M1190.32,303.98v16.52l76.92-76.92c-1.51-4.02-3.2-7.84-5.04-11.48l-71.88,71.88Z"/>
    <polygon class="st0" points="1072.16 394.31 985.73 480.74 985.73 491.25 991.74 491.25 1072.16 410.83 1072.16 394.31"/>
    <polygon class="st0" points="867.36 404.29 783.37 488.28 783.37 491.25 796.91 491.25 867.36 420.81 867.36 404.29"/>
    <path class="st0" d="M867.36,309.48v-7.04c.09-3.67.42-7.15.98-10.46l-84.96,84.97v16.52l83.98-83.98Z"/>
    <path class="st0" d="M1183.2,271.95l62.99-62.99c-2.67-2.88-5.49-5.57-8.44-8.08l-61.8,61.8c2.74,2.63,5.18,5.71,7.25,9.27Z"/>
    <path class="st0" d="M916.56,176.79c-8.25,1.7-16.28,4.15-23.96,7.45l-109.22,109.22v16.52l133.19-133.19Z"/>
    <path class="st0" d="M874.19,274.82c4.04-7.21,9.8-12.95,17.18-17.18l82.06-82.06c-4.9-.72-9.9-1.22-15.01-1.51l-175.05,175.05v16.52l90.82-90.82Z"/>
    <polygon class="st0" points="855.39 182.29 838.87 182.29 783.37 237.79 783.37 254.31 855.39 182.29"/>
    <polygon class="st0" points="1072.16 466.49 1072.16 449.97 1030.88 491.25 1047.4 491.25 1072.16 466.49"/>
    <polygon class="st0" points="1276.75 345.4 1276.75 328.88 1190.32 415.31 1190.32 431.83 1276.75 345.4"/>
    <polygon class="st0" points="1072.16 477.8 1058.71 491.25 1072.16 491.25 1072.16 477.8"/>
    <polygon class="st0" points="1276.75 373.23 1276.75 356.71 1190.32 443.14 1190.32 459.66 1276.75 373.23"/>
    <path class="st0" d="M1274.98,274.98l-84.67,84.67v16.52l86.1-86.1c-.29-5.23-.77-10.25-1.44-15.08Z"/>
    <path class="st0" d="M1276.75,317.57v-15.43c0-.36,0-.72-.01-1.08l-86.42,86.42v16.52l86.43-86.43Z"/>
    <polygon class="st0" points="1276.75 484.56 1276.75 468.04 1253.54 491.25 1270.05 491.25 1276.75 484.56"/>
    <polygon class="st0" points="799.73 182.29 783.37 182.29 783.37 198.64 799.73 182.29"/>
    <polygon class="st0" points="1276.75 456.72 1276.75 440.21 1225.7 491.25 1242.22 491.25 1276.75 456.72"/>
    <polygon class="st0" points="1276.75 401.06 1276.75 384.54 1190.32 470.97 1190.32 487.49 1276.75 401.06"/>
    <polygon class="st0" points="1276.75 428.89 1276.75 412.37 1197.87 491.25 1214.39 491.25 1276.75 428.89"/>
    <polygon class="st0" points="867.36 448.64 867.36 432.12 808.23 491.25 824.75 491.25 867.36 448.64"/>
    <polygon class="st0" points="867.36 476.47 867.36 459.96 836.06 491.25 852.58 491.25 867.36 476.47"/>
    <polygon class="st0" points="867.36 337.32 867.36 334.29 867.36 320.8 783.37 404.78 783.37 421.3 867.36 337.32"/>
    <polygon class="st0" points="867.36 487.79 863.89 491.25 867.36 491.25 867.36 487.79"/>
    <polygon class="st0" points="867.36 365.15 867.36 348.63 783.37 432.61 783.37 449.13 867.36 365.15"/>
    <polygon class="st0" points="1072.16 438.66 1072.16 422.14 1003.05 491.25 1019.57 491.25 1072.16 438.66"/>
    <polygon class="st0" points="867.36 392.98 867.36 376.46 783.37 460.44 783.37 476.96 867.36 392.98"/>
    <polygon class="st0" points="1072.16 355.16 1072.16 338.64 985.73 425.08 985.73 441.6 1072.16 355.16"/>
    <polygon class="st0" points="1072.16 383 1072.16 366.48 985.73 452.91 985.73 469.43 1072.16 383"/>
    <path class="st0" d="M1072.1,298.68c.55-7.79,2.26-14.68,5.03-20.66l-91.4,91.4v16.52l86.39-86.39c0-.29-.02-.58-.02-.87Z"/>
    <polygon class="st0" points="1072.16 327.33 1072.16 310.81 985.73 397.25 985.73 413.77 1072.16 327.33"/>
  </g>
  <g>
    <polygon class="st0" points="544.13 85.04 527.62 85.04 463.95 148.71 463.95 165.23 544.13 85.04"/>
    <polygon class="st0" points="552.54 215.8 552.54 199.28 463.95 287.87 463.95 304.38 552.54 215.8"/>
    <polygon class="st0" points="552.54 160.13 552.54 143.62 463.95 232.2 463.95 248.72 552.54 160.13"/>
    <polygon class="st0" points="552.54 187.97 552.54 171.45 463.95 260.03 463.95 276.55 552.54 187.97"/>
    <polygon class="st0" points="552.54 132.3 552.54 115.78 463.95 204.37 463.95 220.89 552.54 132.3"/>
    <path class="st0" d="M552.54,394.1l-67.67,67.67c2.58,2.94,5.37,5.65,8.36,8.16l63.16-63.16c-2.43-2.93-3.84-7.02-3.85-12.67Z"/>
    <path class="st0" d="M552.54,310.61l-88.59,88.59v1.26c0,5,.3,9.79.86,14.4l87.72-87.72v-16.52Z"/>
    <polygon class="st0" points="488.47 85.04 471.95 85.04 463.95 93.04 463.95 109.56 488.47 85.04"/>
    <polygon class="st0" points="516.3 85.04 499.78 85.04 463.95 120.88 463.95 137.4 516.3 85.04"/>
    <polygon class="st0" points="552.54 104.47 552.54 87.95 463.95 176.54 463.95 193.06 552.54 104.47"/>
    <polygon class="st0" points="552.54 243.63 552.54 227.11 463.95 315.7 463.95 332.22 552.54 243.63"/>
    <path class="st0" d="M614.16,432.49v-16.52l-73.98,73.98c4.94.72,10.03,1.14,15.26,1.26l58.73-58.73Z"/>
    <path class="st0" d="M606.81,412.01c-4.63.43-10.24.94-12.97,1.12-1.67.11-3.33.21-4.98.31l-70.86,70.86c4.06,1.54,8.28,2.83,12.66,3.86l76.14-76.14Z"/>
    <path class="st0" d="M614.16,460.32v-16.52l-47.33,47.33c6.18-.17,12.07-.52,17.46-.94l29.87-29.87Z"/>
    <path class="st0" d="M614.16,471.63l-17.35,17.35c10.6-1.2,17.35-2.44,17.35-2.44v-14.91Z"/>
    <path class="st0" d="M577.26,413.73c-5.37-.12-10.24-.73-14.21-2.31l-63.38,63.38c3.3,2.25,6.79,4.27,10.45,6.07l67.14-67.14Z"/>
    <polygon class="st0" points="552.54 271.46 552.54 254.94 463.95 343.53 463.95 360.05 552.54 271.46"/>
    <polygon class="st0" points="552.54 299.29 552.54 282.77 463.95 371.36 463.95 387.88 552.54 299.29"/>
    <path class="st0" d="M552.54,354.96v-16.52l-86.08,86.08c.99,4.46,2.25,8.71,3.78,12.74l82.3-82.3Z"/>
    <path class="st0" d="M552.54,382.79v-16.52l-78.85,78.85c1.83,3.65,3.9,7.1,6.19,10.33l72.66-72.66Z"/>
  </g>
  <path class="st0" d="M655.59,279.18v-16.52l76.95-76.95h7.87v8.65l-84.82,84.82ZM740.41,222.19v-16.52l-84.82,84.82v16.52l84.82-84.82ZM740.41,483.99l-10.21,10.21h10.21v-10.21ZM655.59,195.69l9.98-9.98h-9.98v9.98ZM740.41,400.49l-84.82,84.82v8.88h7.64l77.18-77.18v-16.52ZM693.4,185.71h-16.52l-21.29,21.29v16.52l37.81-37.81ZM740.41,250.02v-16.52l-84.82,84.82v16.52l84.82-84.82ZM721.23,185.71h-16.52l-49.12,49.12v16.52l65.64-65.64ZM740.41,389.18v-16.52l-84.82,84.82v16.52l84.82-84.82ZM740.41,444.85v-16.52l-65.87,65.87h16.52l49.35-49.35ZM740.41,472.68v-16.52l-38.04,38.04h16.52l21.52-21.52ZM740.41,305.69v-16.52l-84.82,84.82v16.52l84.82-84.82ZM740.41,361.35v-16.52l-84.82,84.82v16.52l84.82-84.82ZM740.41,277.85v-16.52l-84.82,84.82v16.52l84.82-84.82ZM740.41,333.52v-16.52l-84.82,84.82v16.52l84.82-84.82ZM698.77,82.1c-1.91,0-3.78.09-5.6.26l-40.75,40.75c-.1,1.33-.16,2.68-.16,4.06,0,4.01.42,7.81,1.22,11.4l55.58-55.58c-3.26-.58-6.7-.89-10.29-.89ZM655.73,108.48l22.53-22.53c-10.48,4.35-18.32,12.18-22.53,22.53ZM745.28,127.17c0-4.26-.47-8.29-1.36-12.07l-56.12,56.12c3.47.67,7.13,1.02,10.97,1.02,1.6,0,3.17-.07,4.71-.19l41.7-41.7c.06-1.05.1-2.11.1-3.18ZM728.61,91.26c-3.18-2.39-6.75-4.36-10.68-5.84l-61.68,61.68c1.66,3.74,3.81,7.13,6.39,10.13l65.96-65.96ZM742.31,144.53l-24.4,24.4c11.61-4.39,20.17-12.94,24.4-24.4ZM741.03,106.67c-1.7-3.7-3.9-7.04-6.53-9.99l-66.05,66.05c3.14,2.43,6.68,4.43,10.56,5.96l62.02-62.02Z"/>
</svg>