<?xml version="1.0" encoding="UTF-8"?>
<svg xmlns="http://www.w3.org/2000/svg" xmlns:xlink="http://www.w3.org/1999/xlink" version="1.1" viewBox="0 0 1016.25 560.48">
  <!-- Generator: Adobe Illustrator 30.2.1, SVG Export Plug-In . SVG Version: 2.1.1 Build 1)  -->
  <defs>
    <style>
      .st0 {
        fill: #45c1ff;
      }

      .st0, .st1, .st2, .st3, .st4 {
        display: none;
      }

      .st1 {
        fill: #131313;
      }

      .st5 {
        fill: #fff;
      }

      .st6 {
        fill: #f04f33;
      }

      .st2 {
        fill: #3d2eff;
      }

      .st3 {
        fill: url(#linear-gradient);
      }
    </style>
    <linearGradient id="linear-gradient" x1="99.61" y1="480.24" x2="99.17" y2="640.83" gradientTransform="translate(0 -230)" gradientUnits="userSpaceOnUse">
      <stop offset=".03" stop-color="#87a1fe"/>
      <stop offset="1" stop-color="#d69dfe"/>
    </linearGradient>
  </defs>
  <g id="Layer_1" class="st4">
    <g id="Layer_11" class="st4">
      <rect class="st1" x="5.08" y="61.59" width="1006.09" height="479.43"/>
      <path class="st5" d="M418.35,250.28h-42.29v153.8h42.29v-153.8h0Z"/>
      <rect class="st3" x="60.25" y="124.25" width="78.54" height="317.85" rx="38.69" ry="38.69"/>
      <path class="st0" d="M191.65,212.2c-64.14,0-116.11,51.99-116.11,116.11s51.98,116.11,116.11,116.11,116.1-51.98,116.1-116.11-51.98-116.11-116.1-116.11ZM191.65,366.08c-20.86,0-37.76-16.91-37.76-37.76s16.91-37.75,37.76-37.75,37.75,16.91,37.75,37.75-16.91,37.76-37.75,37.76Z"/>
      <path class="st5" d="M315.99,198.62h-42.29v205.37h42.29v-205.37Z"/>
      <path class="st5" d="M144.97,239.64c-45.98,0-83.25,37.27-83.25,83.25s37.27,83.25,83.25,83.25,83.25-37.27,83.25-83.25-37.27-83.25-83.25-83.25h0ZM144.97,361.44c-21.29,0-38.55-17.26-38.55-38.55s17.26-38.55,38.55-38.55,38.55,17.26,38.55,38.55-17.26,38.55-38.55,38.55Z"/>
      <path class="st5" d="M104.01,198.62h-42.29v124.27h42.29v-124.27Z"/>
      <circle class="st5" cx="397.2" cy="212.64" r="22.29"/>
      <path class="st5" d="M513.68,311.94c-.01.33-.02.66-.02.99v-.99h.02Z"/>
      <path class="st5" d="M554.36,311.94v.99c0-.33,0-.66-.02-.99h.02Z"/>
      <path class="st5" d="M596.66,312.93v1.08-2.07.99h0Z"/>
      <path class="st5" d="M596.65,309.45v94.63h-42.29v-94.63h-.02c-.52-10.35-9.42-18.58-20.33-18.58s-19.8,8.23-20.32,18.58h-.02v94.63h-42.29v-93.68c0-33.21,28.04-60.13,62.65-60.13s62.11,26.41,62.64,59.18h-.02,0Z"/>
      <path class="st5" d="M513.68,311.94c-.01.33-.02.66-.02.99v-.99h.02Z"/>
      <path class="st5" d="M554.36,311.94v.99c0-.33,0-.66-.02-.99h.02Z"/>
      <path class="st5" d="M598.44,311.94c-.01.33-.02.66-.02.99v-.99h.02Z"/>
      <path class="st5" d="M639.12,311.94v.99c0-.33,0-.66-.02-.99h.02Z"/>
      <path class="st5" d="M681.41,312.93v1.08-2.07.99h0Z"/>
      <path class="st5" d="M679.62,309.45v94.63h-42.29v-94.63h-.02c-.52-10.35-9.42-18.58-20.33-18.58s-19.8,8.23-20.32,18.58h-.02v94.63h-42.29v-93.68c0-33.21,28.04-60.13,62.65-60.13s62.11,26.41,62.64,59.18h-.02Z"/>
      <path class="st5" d="M598.44,311.94c-.01.33-.02.66-.02.99v-.99h.02Z"/>
      <path class="st5" d="M639.12,311.94v.99c0-.33,0-.66-.02-.99h.02Z"/>
      <path class="st2" d="M75.54,328.28c0,41.77,22.05,78.39,55.14,98.84,5.08-6.55,8.12-14.78,8.12-23.73v-178.52c-37.56,19.24-63.25,58.32-63.25,103.41h0Z"/>
    </g>
    <g id="Layer_2">
      <path class="st5" d="M478.63,229.21h-51.21v186.24h51.21v-186.24Z"/>
      <path class="st5" d="M365.23,167.11h-51.21v248.69h51.21v-248.69h0Z"/>
      <path class="st5" d="M158.14,216.79c-18.02,0-34.95,4.73-49.59,13.04-30.58,17.3-51.21,50.12-51.21,87.77,0,55.67,45.13,100.8,100.8,100.8s100.81-45.13,100.81-100.8-45.13-100.81-100.81-100.81h0ZM158.14,364.28c-25.78,0-46.68-20.9-46.68-46.68s20.9-46.68,46.68-46.68,46.68,20.9,46.68,46.68-20.9,46.68-46.68,46.68h0Z"/>
      <path class="st5" d="M57.34,167.11v150.49h51.21v-150.49h-51.21Z"/>
      <circle class="st5" cx="453.02" cy="183.63" r="26.99"/>
      <path class="st5" d="M718.53,317.84v97.5h-51.21v-97.5c0-20.74-16.86-37.55-37.65-37.55s-37.65,16.81-37.65,37.55v97.5h-51.21v-97.5c0-48.95,39.78-88.64,88.86-88.64s88.86,39.68,88.86,88.64h0Z"/>
      <path class="st5" d="M844.97,318.06v97.74h-51.21v-97.74c0-20.79-16.86-37.65-37.65-37.65s-37.65,16.86-37.65,37.65v97.74h-51.21v-97.74c0-49.08,39.78-88.86,88.86-88.86s88.86,39.78,88.86,88.86h0Z"/>
    </g>
  </g>
  <g id="Layer_21" data-name="Layer_2">
    <path class="st5" d="M123.98,175.72v241.36c0,9.48-10.26,15.41-18.48,10.67l-59.46-34.33c-3.81-2.2-6.16-6.27-6.16-10.67v-248.47c0-4.4,2.35-8.47,6.16-10.67l59.42-34.32c8.21-4.74,18.48,1.18,18.48,10.67v75.77h.04Z"/>
    <polygon class="st5" points="123.98 175.72 123.93 175.72 123.93 175.69 123.98 175.72"/>
    <rect class="st5" x="123.93" y="167.86" width=".04" height="7.86"/>
    <path class="st5" d="M242.15,247.21v136.34c0,4.4-2.35,8.47-6.16,10.67l-59.46,34.33c-8.21,4.74-18.48-1.19-18.48-10.67v-129.23l.04-.02v-75.74c0-9.48,10.27-15.41,18.48-10.67l59.42,34.32c3.81,2.2,6.16,6.27,6.16,10.67Z"/>
    <polygon class="st5" points="158.1 280.81 158.1 288.64 158.05 288.66 158.05 280.81 158.1 280.81"/>
    <path class="st5" d="M368.81,175.92v241.36c0,9.48-10.26,15.41-18.48,10.67l-59.46-34.33c-3.81-2.2-6.16-6.27-6.16-10.67v-248.47c0-4.4,2.35-8.47,6.16-10.67l59.42-34.32c8.21-4.74,18.48,1.18,18.48,10.67v75.77h.04Z"/>
    <polygon class="st5" points="368.81 175.92 368.76 175.92 368.76 175.9 368.81 175.92"/>
    <rect class="st5" x="368.76" y="168.06" width=".04" height="7.86"/>
    <path class="st5" d="M495.5,288.18v140.44c0,9.48-10.27,15.41-18.48,10.67l-59.46-34.34c-3.81-2.2-6.16-6.27-6.16-10.67v-147.54c0-4.4,2.35-8.46,6.16-10.67l59.42-34.33c8.21-4.74,18.48,1.18,18.48,10.67v75.78h.04Z"/>
    <polygon class="st5" points="495.5 288.18 495.45 288.18 495.45 288.15 495.5 288.18"/>
    <rect class="st5" x="495.45" y="280.31" width=".04" height="7.86"/>
    <path class="st5" d="M477.02,116.49l-47.15-27.22c-8.21-4.74-18.48,1.19-18.48,10.67v54.44c0,9.48,10.26,15.41,18.48,10.67l47.15-27.22c8.21-4.74,8.21-16.59,0-21.34Z"/>
    <path class="st5" d="M622.23,352.87v75.83c0,9.48-10.27,15.41-18.48,10.67l-59.51-34.36c-3.81-2.2-6.16-6.27-6.16-10.67v-147.12c0-4.37,2.32-8.41,6.08-10.62l59.46-34.89c8.21-4.82,18.55,1.1,18.55,10.62v140.57l.04-.02Z"/>
    <path class="st5" d="M764.22,222.4v71.52c0,3.86-2.04,7.44-5.36,9.41l-49.77,29.58c-3.45,2.05-7.74,2.05-11.19,0l-49.77-29.58c-3.32-1.97-5.36-5.55-5.36-9.41v-71.52c0-8.5,9.26-13.76,16.56-9.4l38.55,23.01c3.46,2.06,7.77,2.06,11.23,0l38.54-23.01c7.3-4.36,16.56.9,16.56,9.4Z"/>
    <path class="st5" d="M868.92,247.21v147.12c0,4.4-2.35,8.47-6.16,10.67l-59.51,34.36c-8.21,4.74-18.48-1.18-18.48-10.67v-75.83l.04.02v-140.57c0-9.52,10.34-15.44,18.55-10.62l59.46,34.89c3.77,2.21,6.08,6.25,6.08,10.62Z"/>
  </g>
  <g id="Layer_3" class="st4">
    <path class="st5" d="M136.19,157.81v289.38c0,6.98-7.55,11.34-13.6,7.85l-79.54-45.92c-2.8-1.62-4.53-4.61-4.53-7.85V106.66c0-3.24,1.73-6.23,4.53-7.85l79.49-45.92c6.04-3.49,13.6.87,13.6,7.85v97.07h.05Z"/>
    <polygon class="st5" points="136.19 157.81 136.13 157.81 136.13 157.79 136.19 157.81"/>
    <rect class="st5" x="136.13" y="148.68" width=".05" height="9.13"/>
    <path class="st5" d="M273.43,237.82v164.39c0,3.24-1.73,6.23-4.53,7.85l-79.54,45.92c-6.04,3.49-13.6-.87-13.6-7.85v-159.15l.05-.03v-97.05c0-6.98,7.55-11.34,13.6-7.85l79.49,45.92c2.8,1.62,4.53,4.61,4.53,7.85Z"/>
    <polygon class="st5" points="175.81 279.86 175.81 288.95 175.76 288.97 175.76 279.86 175.81 279.86"/>
    <path class="st5" d="M420.52,158.05v289.38c0,6.98-7.55,11.34-13.6,7.85l-79.54-45.92c-2.8-1.62-4.53-4.61-4.53-7.85V106.89c0-3.24,1.73-6.23,4.53-7.85l79.49-45.92c6.04-3.49,13.6.87,13.6,7.85v97.07h.05Z"/>
    <polygon class="st5" points="420.52 158.05 420.47 158.05 420.47 158.02 420.52 158.05"/>
    <rect class="st5" x="420.47" y="148.92" width=".05" height="9.13"/>
    <path class="st5" d="M567.65,288.41v172.17c0,6.98-7.55,11.34-13.6,7.85l-79.54-45.93c-2.8-1.62-4.53-4.61-4.53-7.85v-177.4c0-3.24,1.73-6.23,4.53-7.85l79.49-45.93c6.04-3.49,13.6.87,13.6,7.85v97.08h.05Z"/>
    <polygon class="st5" points="567.65 288.41 567.59 288.41 567.59 288.39 567.65 288.41"/>
    <rect class="st5" x="567.59" y="279.29" width=".05" height="9.13"/>
    <path class="st6" d="M554.05,93.57l-70.48-40.69c-6.04-3.49-13.6.87-13.6,7.85v81.38c0,6.98,7.55,11.34,13.6,7.85l70.48-40.69c6.04-3.49,6.04-12.21,0-15.7Z"/>
    <path class="st5" d="M997.39,240.78v170.85c0,5.11-2.73,9.83-7.15,12.39l-69.11,39.91c-9.54,5.51-21.46-1.38-21.46-12.39v-88.06l.05.03v-50.31c0-11.09-12.08-17.96-21.61-12.3l-65.52,38.93c-4.5,2.68-10.11,2.68-14.61,0l-65.52-38.93c-9.54-5.67-21.61,1.21-21.61,12.3v50.31l.05-.03v88.06c0,11.01-11.92,17.89-21.46,12.39l-69.11-39.91c-4.43-2.56-7.15-7.28-7.15-12.39v-170.85c0-5.07,2.69-9.77,7.07-12.34l83.3-48.88c4.5-2.64,10.09-2.62,14.57.06l79.84,47.67c4.52,2.7,10.15,2.7,14.67,0l79.84-47.67c4.48-2.68,10.07-2.7,14.57-.06l83.3,48.88c4.38,2.57,7.07,7.26,7.07,12.34Z"/>
  </g>
</svg>