<?xml version="1.0" encoding="UTF-8"?>
<svg id="Layer_1" xmlns="http://www.w3.org/2000/svg" version="1.1" viewBox="0 0 398.68 92.05">
  <!-- Generator: Adobe Illustrator 30.2.1, SVG Export Plug-In . SVG Version: 2.1.1 Build 1)  -->
  <defs>
    <style>
      .st0 {
        fill: #3781c4;
      }
    </style>
  </defs>
  <g id="_x39_TaK9j">
    <g>
      <path class="st0" d="M196.37,81.51c-15.22.08-27.47-10.77-28.35-25.19s9.81-26.6,24.59-28.16c8.22-.87,15.62,1.32,21.69,6.9V6.75s9.92.05,9.92.05l.25,46.02c.09,16.3-10.76,28.6-28.1,28.69ZM214.19,54.74c0-9.96-8.07-18.03-18.03-18.03s-18.03,8.07-18.03,18.03,8.07,18.03,18.03,18.03,18.03-8.07,18.03-18.03Z"/>
      <path class="st0" d="M84.33,65.26c3.15-.43,7.48-.28,10.75.07-3.64,9.56-12.02,14.83-22,15.9-16.38,1.75-30.19-9.63-30.59-25.75s12.14-28.21,28.5-27.52,27.53,13.92,25.05,29.81l-43.17.05c.7,7.54,6.4,12.61,12.48,14.12,7.22,1.79,14.04-.18,18.98-6.67ZM85.44,49.93c-.35-7.19-6.09-12.35-13.38-13.14-8.9-.96-17.02,4.14-18.9,13.1l32.28.04Z"/>
      <path class="st0" d="M150.02,80.76l-.95-6.08c-5.3,4.49-11.3,6.75-18.08,6.74-15.47-.02-27.29-11.93-27.2-27.04.09-14.48,11.98-26.17,27.3-26.42,14.03-.23,27.27,9.16,27.99,23.79.49,9.82.23,19.08.17,28.87l-9.24.15ZM149.72,54.76c0-9.92-8.04-17.96-17.96-17.96s-17.96,8.04-17.96,17.96,8.04,17.96,17.96,17.96,17.96-8.04,17.96-17.96Z"/>
      <polygon points="364.6 53.9 389.97 80.19 377 80.78 356.76 59.34 356.32 80.7 346.62 80.54 346.62 7.15 356.44 6.99 356.67 48.19 376.14 28.71 388.75 29.25 364.6 53.9"/>
      <path d="M326.6,52.34c-.03-9.31-6.91-15.1-15.13-15.21s-14.76,6.28-14.82,14.96l-.19,28.35-9.75.31-.15-27.89c-.07-13.85,10.12-24.2,23.99-24.72,12.11-.45,24.67,7.65,25.51,20.74.69,10.73.24,20.85.2,31.65l-9.57.17-.08-28.34Z"/>
      <path d="M246.26,59.8c.02,17.42,19.59,6.98,13.48,20.85-11.93,1.64-23.63-7.27-23.66-19.88l-.14-53.86h10.26s.06,52.89.06,52.89Z"/>
      <path class="st0" d="M20,51.77v28.5s-9.96.3-9.96.3l.18-30.7c.09-14.56,14.56-23.56,28.35-21.07l-.04,8.35c-5.76.1-9.58.4-13.49,3.25-2.95,2.15-5.04,7.15-5.04,11.37Z"/>
      <rect x="244.16" y="49.39" width="51.96" height="10.89" transform="translate(215.18 324.95) rotate(-89.97)"/>
      <circle cx="270.01" cy="14.38" r="6.76"/>
    </g>
  </g>
</svg>