<?xml version="1.0" encoding="UTF-8"?>
<svg xmlns="http://www.w3.org/2000/svg" xmlns:xlink="http://www.w3.org/1999/xlink" version="1.1" viewBox="0 0 1016.25 560.48">
  <defs>
    <style>
      .st0 {
        fill: #45c1ff;
      }

      .st0, .st1, .st2, .st3, .st4 {
        display: none;
      }

      .st1 {
        fill: #131313;
      }

      .st5 {
        fill: #3182cd;
      }

      .st2 {
        fill: #3d2eff;
      }

      .st3 {
        fill: url(#linear-gradient);
      }
    </style>
    <linearGradient id="linear-gradient" x1="99.61" y1="250.24" x2="99.17" y2="410.83" gradientUnits="userSpaceOnUse">
      <stop offset=".03" stop-color="#87a1fe"/>
      <stop offset="1" stop-color="#d69dfe"/>
    </linearGradient>
  </defs>
  <g id="Layer_1" class="st4">
    <rect class="st1" x="5.08" y="61.59" width="1006.09" height="479.43"/>
    <path class="st5" d="M418.35,250.28h-42.29v153.8h42.29v-153.8Z"/>
    <rect class="st3" x="60.25" y="124.25" width="78.54" height="317.85" rx="38.69" ry="38.69"/>
    <path class="st0" d="M191.65,212.2c-64.14,0-116.11,51.99-116.11,116.11s51.98,116.11,116.11,116.11,116.1-51.98,116.1-116.11-51.98-116.11-116.1-116.11ZM191.65,366.08c-20.86,0-37.76-16.91-37.76-37.76s16.91-37.75,37.76-37.75,37.75,16.91,37.75,37.75-16.91,37.76-37.75,37.76Z"/>
    <path class="st5" d="M315.99,198.62h-42.29v205.37h42.29v-205.37Z"/>
    <path class="st5" d="M144.97,239.64c-45.98,0-83.25,37.27-83.25,83.25s37.27,83.25,83.25,83.25,83.25-37.27,83.25-83.25-37.27-83.25-83.25-83.25ZM144.97,361.44c-21.29,0-38.55-17.26-38.55-38.55s17.26-38.55,38.55-38.55,38.55,17.26,38.55,38.55-17.26,38.55-38.55,38.55Z"/>
    <path class="st5" d="M104.01,198.62h-42.29v124.27h42.29v-124.27Z"/>
    <circle class="st5" cx="397.2" cy="212.64" r="22.29"/>
    <path class="st5" d="M513.68,311.94c-.01.33-.02.66-.02.99v-.99h.02Z"/>
    <path class="st5" d="M554.36,311.94v.99c0-.33,0-.66-.02-.99h.02Z"/>
    <path class="st5" d="M596.66,312.93c0,.36,0,.72,0,1.08v-2.07c0,.33,0,.66,0,.99Z"/>
    <path class="st5" d="M596.65,309.45v94.63h-42.29v-94.63h-.02c-.52-10.35-9.42-18.58-20.33-18.58s-19.8,8.23-20.32,18.58h-.02v94.63h-42.29v-92.9c0-.26,0-.52,0-.78,0-33.21,28.04-60.13,62.65-60.13s62.11,26.41,62.64,59.18Z"/>
    <path class="st5" d="M513.68,311.94c-.01.33-.02.66-.02.99v-.99h.02Z"/>
    <path class="st5" d="M554.36,311.94v.99c0-.33,0-.66-.02-.99h.02Z"/>
    <path class="st5" d="M598.44,311.94c-.01.33-.02.66-.02.99v-.99h.02Z"/>
    <path class="st5" d="M639.12,311.94v.99c0-.33,0-.66-.02-.99h.02Z"/>
    <path class="st5" d="M681.41,312.93c0,.36,0,.72,0,1.08v-2.07c0,.33,0,.66,0,.99Z"/>
    <path class="st5" d="M679.62,309.45v94.63h-42.29v-94.63h-.02c-.52-10.35-9.42-18.58-20.33-18.58s-19.8,8.23-20.32,18.58h-.02v94.63h-42.29v-92.9c0-.26,0-.52,0-.78,0-33.21,28.04-60.13,62.65-60.13s62.11,26.41,62.64,59.18Z"/>
    <path class="st5" d="M598.44,311.94c-.01.33-.02.66-.02.99v-.99h.02Z"/>
    <path class="st5" d="M639.12,311.94v.99c0-.33,0-.66-.02-.99h.02Z"/>
    <path class="st2" d="M75.54,328.28c0,41.77,22.05,78.39,55.14,98.84,5.08-6.55,8.12-14.78,8.12-23.73v-178.52c-37.56,19.24-63.25,58.32-63.25,103.41Z"/>
  </g>
  <g id="Layer_2">
    <path class="st5" d="M489.18,229.67h-51.21v186.24h51.21v-186.24Z"/>
    <path class="st5" d="M365.23,167.11h-51.21v248.69h51.21v-248.69Z"/>
    <path class="st5" d="M158.14,216.79c-18.02,0-34.95,4.73-49.59,13.04-30.58,17.3-51.21,50.12-51.21,87.77,0,55.67,45.13,100.8,100.8,100.8s100.81-45.13,100.81-100.8-45.13-100.81-100.81-100.81ZM158.14,364.28c-25.78,0-46.68-20.9-46.68-46.68s20.9-46.68,46.68-46.68,46.68,20.9,46.68,46.68-20.9,46.68-46.68,46.68Z"/>
    <path class="st5" d="M57.34,167.11v150.49h51.21v-150.49h-51.21Z"/>
    <circle class="st5" cx="463.58" cy="184.09" r="26.99"/>
    <path class="st5" d="M719.08,318.31v97.5h-51.21v-97.5c0-20.74-16.86-37.55-37.65-37.55s-37.65,16.81-37.65,37.55v97.5h-51.21v-97.5c0-48.95,39.78-88.64,88.86-88.64s88.86,39.68,88.86,88.64Z"/>
    <path class="st5" d="M845.52,318.53v97.74h-51.21v-97.74c0-20.79-16.86-37.65-37.65-37.65s-37.65,16.86-37.65,37.65v97.74h-51.21v-97.74c0-49.08,39.78-88.86,88.86-88.86s88.86,39.78,88.86,88.86Z"/>
  </g>
</svg>