<?xml version="1.0" encoding="UTF-8"?>
<svg id="Layer_1" xmlns="http://www.w3.org/2000/svg" xmlns:xlink="http://www.w3.org/1999/xlink" version="1.1" viewBox="0 0 1016.25 560.48">
  <!-- Generator: Adobe Illustrator 30.2.1, SVG Export Plug-In . SVG Version: 2.1.1 Build 1)  -->
  <defs>
    <style>
      .st0 {
        display: none;
        fill: #131313;
      }

      .st1 {
        fill: #3b5eff;
      }

      .st2 {
        fill: url(#linear-gradient);
      }

      .st3 {
        fill: #fff;
      }

      .st4 {
        fill: #45c1ff;
      }
    </style>
    <linearGradient id="linear-gradient" x1="83.35" y1="249.6" x2="82.94" y2="398.96" gradientUnits="userSpaceOnUse">
      <stop offset=".03" stop-color="#87a1fe"/>
      <stop offset="1" stop-color="#d69dfe"/>
    </linearGradient>
  </defs>
  <rect class="st0" x="5.08" y="61.59" width="1006.09" height="479.43"/>
  <path class="st3" d="M718.35,250.28h-42.29v153.8h42.29v-153.8Z"/>
  <rect class="st2" x="34.84" y="132.43" width="96.85" height="295.62" rx="48.43" ry="48.43"/>
  <path class="st4" d="M180.88,214.85c-58.88,0-106.6,47.73-106.6,106.6s47.72,106.6,106.6,106.6,106.59-47.72,106.59-106.6-47.72-106.6-106.59-106.6ZM180.88,356.12c-19.15,0-34.67-15.52-34.67-34.67s15.52-34.66,34.67-34.66,34.66,15.52,34.66,34.66-15.52,34.67-34.66,34.67Z"/>
  <path class="st1" d="M131.69,226.88v152.77c0,11.39-3.93,21.87-10.52,30.14-28.29-19.17-46.89-51.57-46.89-88.31,0-41.13,23.29-76.82,57.41-94.59Z"/>
  <path class="st3" d="M615.99,198.62h-42.29v205.37h42.29v-205.37Z"/>
  <path class="st3" d="M444.97,239.64c-45.98,0-83.25,37.27-83.25,83.25s37.27,83.25,83.25,83.25,83.25-37.27,83.25-83.25-37.27-83.25-83.25-83.25ZM444.97,361.44c-21.29,0-38.55-17.26-38.55-38.55s17.26-38.55,38.55-38.55,38.55,17.26,38.55,38.55-17.26,38.55-38.55,38.55Z"/>
  <path class="st3" d="M404.01,198.62h-42.29v124.27h42.29v-124.27Z"/>
  <circle class="st3" cx="697.2" cy="212.64" r="22.29"/>
  <path class="st3" d="M813.68,311.94c-.01.33-.02.66-.02.99v-.99h.02Z"/>
  <path class="st3" d="M854.36,311.94v.99c0-.33,0-.66-.02-.99h.02Z"/>
  <path class="st3" d="M896.66,312.93c0,.36,0,.72,0,1.08v-2.07c0,.33,0,.66,0,.99Z"/>
  <path class="st3" d="M896.65,309.45v94.63h-42.29v-94.63h-.02c-.52-10.35-9.42-18.58-20.33-18.58s-19.8,8.23-20.32,18.58h-.02v94.63h-42.29v-92.9c0-.26,0-.52,0-.78,0-33.21,28.04-60.13,62.65-60.13s62.11,26.41,62.64,59.18Z"/>
  <path class="st3" d="M813.68,311.94c-.01.33-.02.66-.02.99v-.99h.02Z"/>
  <path class="st3" d="M854.36,311.94v.99c0-.33,0-.66-.02-.99h.02Z"/>
  <path class="st3" d="M898.44,311.94c-.01.33-.02.66-.02.99v-.99h.02Z"/>
  <path class="st3" d="M939.12,311.94v.99c0-.33,0-.66-.02-.99h.02Z"/>
  <path class="st3" d="M981.41,312.93c0,.36,0,.72,0,1.08v-2.07c0,.33,0,.66,0,.99Z"/>
  <path class="st3" d="M979.62,309.45v94.63h-42.29v-94.63h-.02c-.52-10.35-9.42-18.58-20.33-18.58s-19.8,8.23-20.32,18.58h-.02v94.63h-42.29v-92.9c0-.26,0-.52,0-.78,0-33.21,28.04-60.13,62.65-60.13s62.11,26.41,62.64,59.18Z"/>
  <path class="st3" d="M898.44,311.94c-.01.33-.02.66-.02.99v-.99h.02Z"/>
  <path class="st3" d="M939.12,311.94v.99c0-.33,0-.66-.02-.99h.02Z"/>
</svg>